<?xml version="1.0" encoding="UTF-8"?>
<svg id="Layer_1" data-name="Layer 1" xmlns="http://www.w3.org/2000/svg" viewBox="0 0 100 100">
  <defs>
    <style>
      .cls-1 {
        fill: #dca06d;
      }
    </style>
  </defs>
  <path class="cls-1" d="M36.34,95.47c-21.81-1.98-34.59-26.38-22.17-45.17,6.86-10.37,19.26-14.95,31.41-12.56v20.25c-4.64-1.9-9.9-2.67-13.77,1.24-7.35,7.41.21,19.68,10.18,16.58,3.49-1.09,6.97-5.07,6.97-8.84V4.53h19.36v4.71c0,.71.68,3.05.94,3.86,2.22,6.86,8.7,11.96,15.85,12.75l5.59.36v19.01c-7.86.44-15.55-1.09-22.38-4.97v28.33c-1,14.06-12.96,25.9-27,26.91h-4.97ZM85.37,31.17c-11.24-.54-20.96-9.86-22.24-21.02l-.23-.3h-8.62v57.82c0,4.12-3.51,9.23-6.87,11.42-12.98,8.47-28.99-5.33-22.41-19.39,1.74-3.72,7.34-8.64,11.61-8.64h3.64v-8.53c-12.62-.83-24.06,8.62-25.4,21.23-1.37,12.95,8.04,24.55,20.89,26.18,13.83,1.75,26.3-8.36,27.25-22.26V29.93s6.65,4.8,6.65,4.8c4.71,3.06,10.14,4.67,15.72,5.15v-8.7Z"/>
</svg>