<?xml version="1.0" encoding="UTF-8"?>
<svg id="Layer_1" data-name="Layer 1" xmlns="http://www.w3.org/2000/svg" viewBox="0 0 100 100">
  <defs>
    <style>
      .cls-1 {
        fill: #dca06d;
      }
    </style>
  </defs>
  <path class="cls-1" d="M86,98.51h-27.28v-34.48h14.59l1.89-11.37h-16.48v-12.41c0-.59,1.13-2.46,1.6-2.94.51-.52,2.4-1.7,3.04-1.7h12.41v-11.37h-15.44c-5.99,0-12.98,6.99-12.98,12.98v15.44h-11.37v11.37h11.37v34.48H14c-2.26-.49-4.3-1.09-6.24-2.39-3.48-2.33-5.56-6.02-6.27-10.12V14C2.5,7.34,7.7,2.16,14.47,1.5h70.87c7.01.57,12.59,6.14,13.17,13.16v70.87c-.54,6.46-6.02,12.29-12.51,12.98ZM64.4,92.83h20.56c3.32,0,7.01-3.37,7.63-6.59.4-24.11.4-48.37,0-72.47-.8-3.15-3.2-5.55-6.35-6.35-24.11-.4-48.36-.4-72.47,0-3.15.8-5.55,3.2-6.35,6.35-.4,24.11-.4,48.37,0,72.47.61,3.21,4.31,6.59,7.63,6.59h26.62v-23.12h-11.37v-22.74h11.37c.16-4.94-.56-9.91.94-14.69,2.38-7.55,9.48-13.04,17.35-13.73h21.5s0,22.73,0,22.73h-17.05v5.68h17.62l-3.79,22.74h-13.83v23.12Z"/>
</svg>