<?xml version="1.0" encoding="UTF-8"?>
<svg id="Layer_1" data-name="Layer 1" xmlns="http://www.w3.org/2000/svg" viewBox="0 0 100 100">
  <defs>
    <style>
      .cls-1 {
        fill: #dca06d;
      }
    </style>
  </defs>
  <path class="cls-1" d="M1.49,79.01c7.42-2.53,15.02-4.64,22.17-7.86-6.85-3.2-10.42-9.82-12.31-16.86l.94-.19c-3.65-3.92-5.8-8.82-6.08-14.21l.4-4.83,2.09.47c-4.07-8.05-2.29-16.92,2.56-24.15,3.34,4.21,6.83,8.15,11.1,11.44,6.81,5.24,14.71,8.4,23.2,9.77.11-2.63-.09-5.19.56-7.77,3.76-14.89,24.39-19.09,35.24-9.18l14.12-4.84-3.6,10.23,6.63-.19c-2.72,4.12-6.17,7.97-8.87,12.06-2.99,4.53-1.74,7.25-1.93,12.28-1.34,34.64-30.1,48.35-61.65,43.65-8.99-1.34-16.71-5.37-24.56-9.64v-.19ZM86.76,27.1h-3.03l2.27-6.82c-1.2.25-2.54.92-3.74,1.09-3.76.52-4.67-1.83-7.5-3.39-7.14-3.94-17.65-1.95-21.88,5.28-3.05,5.22-.71,10.1-.42,15.6-15.05-.24-29.41-6.22-39.79-17.05-.53,2.09-.68,4.19-.36,6.32,1.25,8.08,7.8,11.66,13.61,16.32.17.14.34.28.57.28l-13.83-1.33c1.36,5.56,5.59,9.29,10.95,10.93,3.57,1.09,7.43,1.69,11.03,2.71l-14.4,3.88c5.12,8.01,14.69,6.66,22.92,7.49l-13.51,6.47c-3.8,2.17-8.98,3.15-12.73,5.08-.18.09-.45.11-.47.38,3.41,1.24,6.75,2.26,10.36,2.81,26.63,4.08,52.62-6.04,55.01-35.69.45-5.59-1-10.78,1.86-15.95l3.06-4.42Z"/>
</svg>