<?xml version="1.0" encoding="UTF-8"?>
<svg id="Layer_1" data-name="Layer 1" xmlns="http://www.w3.org/2000/svg" viewBox="0 0 100 100">
  <defs>
    <style>
      .cls-1 {
        fill: #dca06d;
      }
    </style>
  </defs>
  <path class="cls-1" d="M86,1.49c2.26.49,4.3,1.09,6.24,2.39,3.48,2.33,5.56,6.02,6.27,10.12v72c-1.01,6.67-6.21,11.84-12.98,12.5H14.66c-7.01-.57-12.59-6.14-13.17-13.16V14.47C2.03,8.01,7.51,2.19,14,1.49h72ZM15.1,7.23c-3.73.27-6.78,2.93-7.68,6.53-.4,24.11-.4,48.37,0,72.47.8,3.15,3.2,5.55,6.35,6.35,24.11.4,48.37.4,72.47,0,3.15-.8,5.55-3.2,6.35-6.35.4-24.11.4-48.37,0-72.47-1.05-3.95-4.14-6.31-8.19-6.59l-69.3.06Z"/>
  <path class="cls-1" d="M75.58,50c0,14.13-11.45,25.58-25.58,25.58s-25.58-11.45-25.58-25.58c0-14.13,11.45-25.58,25.58-25.58s25.58,11.45,25.58,25.58ZM69.86,50c0-10.97-8.89-19.85-19.85-19.85s-19.85,8.89-19.85,19.85,8.89,19.85,19.85,19.85,19.85-8.89,19.85-19.85Z"/>
  <path class="cls-1" d="M86.95,21.57c0,4.71-3.82,8.53-8.53,8.53s-8.53-3.82-8.53-8.53,3.82-8.53,8.53-8.53,8.53,3.82,8.53,8.53ZM81.24,21.57c0-1.56-1.26-2.82-2.82-2.82s-2.82,1.26-2.82,2.82,1.26,2.82,2.82,2.82,2.82-1.26,2.82-2.82Z"/>
</svg>