<?xml version="1.0" encoding="UTF-8"?>
<svg id="Layer_1" data-name="Layer 1" xmlns="http://www.w3.org/2000/svg" viewBox="0 0 102 74">
  <defs>
    <style>
      .cls-1 {
        fill: #c7a7bb;
      }

      .cls-2 {
        fill: #dc9f6c;
      }
    </style>
  </defs>
  <path class="cls-2" d="M57.19,66.91c-2.41,0-4.59-.82-6.19-2.16-1.6,1.33-3.78,2.16-6.19,2.16-3.84,0-7.23-2.08-8.42-5.19-.53-1.38.16-2.93,1.54-3.46,1.38-.53,2.93.16,3.46,1.54.33.85,1.64,1.75,3.42,1.75,2.07,0,3.51-1.17,3.51-2.22,0-1.48,1.2-2.68,2.68-2.68s2.68,1.2,2.68,2.68c0,1.05,1.44,2.22,3.51,2.22,1.79,0,3.1-.9,3.42-1.75.53-1.38,2.08-2.07,3.46-1.54,1.38.53,2.07,2.08,1.54,3.46-1.19,3.1-4.58,5.18-8.42,5.18Z"/>
  <g>
    <path class="cls-2" d="M43.74,25.96c-1.41,2.44-9.82.23-18.77-4.94-3.54-2.05-6.64-4.25-9.01-6.32.14,3.14-.07,6.96-.69,11.02-1.56,10.22-5.08,18.16-7.87,17.74-2.79-.42-3.79-9.06-2.23-19.28,1.3-8.52,3.96-15.46,6.42-17.28,2.02-1.87,10,.37,18.48,5.27,8.96,5.17,15.08,11.35,13.67,13.79Z"/>
    <path class="cls-2" d="M58.26,25.96c1.41,2.44,9.82.23,18.77-4.94,3.54-2.05,6.64-4.25,9.01-6.32-.14,3.14.07,6.96.69,11.02,1.56,10.22,5.08,18.16,7.87,17.74,2.79-.42,3.79-9.06,2.23-19.28-1.3-8.52-3.96-15.46-6.42-17.28-2.02-1.87-10,.37-18.48,5.27-8.96,5.17-15.08,11.35-13.67,13.79Z"/>
  </g>
  <g>
    <path class="cls-1" d="M79.52,44.77c4.48-1.69,7.05-5.92,5.74-9.41s-5.84-4.9-10.23-3.38h-.01c-2.45.41-8.89,2.58-27.2,9.49-11.99,4.52-27.45,10.55-28.65,11.24-2.18,1.26-3.17,3.02-2.59,4.56.02.06.05.12.07.18,1.08,2.34,6.01,3.55,16.6-.09,10.45-3.59,26.29-12.88,35.46-18.52-.12.9-.03,1.81.29,2.67,1.32,3.49,6.04,4.96,10.52,3.27ZM75.73,34.75c2.9-1.1,5.99-.33,6.74,1.66s-1.06,4.6-3.96,5.7-5.99.33-6.74-1.66,1.06-4.61,3.96-5.7Z"/>
    <path class="cls-1" d="M33.01,41.5c.33-.86.41-1.77.29-2.67,9.17,5.64,25.01,14.93,35.46,18.52,10.59,3.64,15.52,2.44,16.6.09.03-.06.05-.12.07-.18.58-1.54-.41-3.3-2.59-4.56-1.2-.69-16.66-6.72-28.65-11.24-18.3-6.91-24.75-9.08-27.2-9.48h-.01c-4.39-1.53-8.94-.05-10.23,3.37s1.25,7.71,5.74,9.41c4.48,1.69,9.2.22,10.52-3.27ZM30.23,40.45c-.75,1.99-3.84,2.75-6.74,1.66s-4.71-3.71-3.96-5.7,3.84-2.76,6.74-1.66c2.9,1.09,4.71,3.71,3.96,5.7Z"/>
  </g>
</svg>